<?xml version="1.0" standalone="no"?>
<!DOCTYPE svg PUBLIC "-//W3C//DTD SVG 1.1//EN" "http://www.w3.org/Graphics/SVG/1.1/DTD/svg11.dtd" >
<!--
2013-9-30: Created.
-->
<svg>
<metadata>
Created by iconfont
</metadata>
<defs>

<font id="iconfont" horiz-adv-x="1024" >
  <font-face
    font-family="iconfont"
    font-weight="500"
    font-stretch="normal"
    units-per-em="1024"
    ascent="896"
    descent="-128"
  />
    <missing-glyph />
    
    <glyph glyph-name="shujuku" unicode="&#58924;" d="M827 783.375C748.25 817.125 635.75 834 512 834 388.25 834 275.75 817.125 197 783.375 107 744 62 699 62 648.375l0-523.125c0-50.625 45-101.25 135-135C275.75-49.125 388.25-66 512-66c123.75 0 236.25 16.875 315 50.625 84.375 33.75 135 84.375 135 135L962 648.375C962 699 917 744 827 783.375L827 783.375zM776.375 552.75C703.25 524.625 602 513.375 512 513.375 416.375 513.375 320.75 524.625 247.625 552.75 163.25 575.25 123.875 609 123.875 648.375c0 33.75 45 67.5 123.75 95.625C320.75 766.5 416.375 777.75 512 777.75c90 0 191.25-16.875 264.375-39.375 78.75-28.125 123.75-61.875 123.75-95.625C900.125 609 860.75 575.25 776.375 552.75L776.375 552.75zM782 389.625C708.875 367.125 607.625 350.25 512 350.25c-95.625 0-191.25 16.875-270 39.375C163.25 417.75 118.25 451.5 118.25 485.25L118.25 547.125C174.5 524.625 213.875 496.5 275.75 485.25 348.875 468.375 427.625 457.125 512 457.125c84.375 0 163.125 11.25 236.25 28.125C810.125 496.5 849.5 524.625 905.75 547.125l0-67.5C905.75 451.5 860.75 417.75 782 389.625L782 389.625zM782 209.625c-73.125-22.5-174.375-39.375-270-39.375-95.625 0-191.25 16.875-270 39.375C163.25 232.125 118.25 265.875 118.25 305.25L118.25 389.625c56.25-28.125 95.625-50.625 157.5-67.5C348.875 305.25 427.625 294 512 294c84.375 0 163.125 11.25 236.25 28.125C810.125 339 849.5 361.5 905.75 389.625l0-84.375C905.75 265.875 860.75 232.125 782 209.625L782 209.625zM512-9.75c-95.625 0-191.25 16.875-270 39.375C163.25 52.125 118.25 85.875 118.25 119.625l0 84.375c56.25-28.125 95.625-50.625 157.5-67.5 67.5-16.875 151.875-28.125 230.625-28.125 84.375 0 163.125 11.25 236.25 28.125 67.5 16.875 106.875 39.375 163.125 67.5l0-84.375c0-33.75-45-67.5-123.75-95.625C708.875 1.5 602-9.75 512-9.75L512-9.75zM512-9.75"  horiz-adv-x="1024" />

    
    <glyph glyph-name="chushihua" unicode="&#58929;" d="M450.69446622 383.94886963C450.69446622 417.8382 478.1618 445.30553378 512.05113037 445.30553378 545.94046162 445.30553378 573.40779453 417.8382 573.40779453 383.94886963 573.40779453 350.05953838000005 545.94046162 322.59220546999995 512.05113037 322.59220546999995 478.1618 322.59220546999995 450.69446622 350.05953838000005 450.69446622 383.94886963ZM920.85013057 422.11271484C898.25042568 422.11271484 879.94568779 440.43790488 879.94568779 463.01715674L879.92523565 466.61674805 870.72173633 466.61674805C833.39643184 630.76627676 686.85626622 753.3977956 511.39665987 753.3977956 307.7129876 753.3977956 142.6022044 588.2870124 142.6022044 384.60334013 142.6022044 180.94012002 307.7129876 15.808885550000014 511.39665987 15.808885550000014 672.048858 15.808885550000014 808.34246123 118.72446299 858.90035234 262.09453506L861.6818542 262.09453506 861.66140205 262.29905654000004C861.66140205 284.89876143000004 879.98659209 303.20349932 902.56584482 303.20349932 925.16554971 303.20349932 943.4702876 284.89876143000004 943.4702876 262.29905654000004L943.49073974 262.09453506 944.82013378 262.09453506C944.53380283 261.03101893999997 944.10430596 260.00840800000003 943.79752286 258.96534492L943.8588793 258.49494374999995C943.8588793 249.41415731999996 940.79104648 241.09010302000002 935.75980039 234.29996602000006 874.0349958 59.49483018000001 707.94250684-66 511.98977393-66 263.47483232-66 62 135.47483232000002 62 384.01022607 62 632.54561982 263.47483232 834 511.98977393 834 664.09294414 834 798.34132461 758.46994688 879.70026113 642.91489599L879.55709609 753.15236894C879.55709609 775.75207383 897.88228614 794.05681172 920.46153887 794.05681172 943.06124287 794.05681172 961.36598076 775.75207383 961.36598076 753.15236894L961.75457334 463.01715674C961.75457334 440.43790488 943.4293833 422.11271484 920.85013057 422.11271484Z"  horiz-adv-x="1024" />

    
    <glyph glyph-name="shezhi" unicode="&#58925;" d="M902.4 320c-25.6-6.4-51.2-12.8-83.2-12.8-6.4-32-19.2-57.6-32-83.2 19.2-25.6 32-44.8 51.2-70.4L742.4 64c-19.2 12.8-44.8 32-70.4 51.2-25.6-12.8-51.2-25.6-83.2-32-6.4-32-6.4-57.6-12.8-83.2L448 0c-6.4 25.6-12.8 51.2-12.8 83.2-32 6.4-57.6 19.2-83.2 32-25.6-19.2-44.8-32-70.4-51.2L192 153.60000000000002c12.8 19.2 32 44.8 51.2 70.4-12.8 25.6-25.6 51.2-32 83.2C172.8 307.20000000000005 147.2 313.6 121.6 320L121.6 448c25.6 6.4 51.2 12.8 83.2 12.8 6.4 32 19.2 57.6 32 83.2C217.6 569.6 204.8 595.2 192 614.4L281.6 704c19.2-12.8 44.8-32 70.4-51.2 25.6 12.8 51.2 25.6 83.2 32C435.2 723.2 441.6 748.8 448 774.4l128 0c6.4-25.6 12.8-51.2 12.8-83.2 32-6.4 57.6-19.2 83.2-32 25.6 19.2 44.8 32 70.4 51.2L832 614.4c-12.8-19.2-32-44.8-51.2-70.4 12.8-25.6 25.6-51.2 32-83.2 32-6.4 57.6-6.4 83.2-12.8L896 320zM915.2 505.6C896 505.6 883.2 512 864 512c-6.4 6.4-6.4 19.2-12.8 25.6 12.8 12.8 19.2 32 32 44.8C896 608 896 633.6 876.8 652.8l-89.6 89.6c-12.8 12.8-25.6 19.2-38.4 19.2-12.8 0-19.2 0-32-6.4-12.8-6.4-25.6-19.2-44.8-32-6.4 6.4-19.2 6.4-25.6 12.8 0 19.2-6.4 38.4-12.8 51.2C627.2 812.8 601.6 832 576 832L448 832C422.4 832 396.8 812.8 390.4 787.2 390.4 774.4 384 755.2 384 736 371.2 729.6 364.8 729.6 352 723.2 339.2 736 326.4 742.4 313.6 755.2 300.8 761.6 288 761.6 281.6 761.6c-12.8 0-32-6.4-38.4-19.2L147.2 652.8C128 633.6 128 608 140.8 582.4c6.4-12.8 19.2-25.6 32-44.8C166.4 531.2 166.4 524.8 160 512 140.8 512 121.6 505.6 108.8 505.6 83.2 499.2 64 473.6 64 448l0-128c0-25.6 19.2-51.2 44.8-57.6C121.6 262.4 140.8 256 160 256c6.4-6.4 6.4-19.2 12.8-25.6-12.8-12.8-19.2-32-32-44.8C128 160 128 134.39999999999998 147.2 115.20000000000005l89.6-89.6c12.8-12.8 25.6-19.2 38.4-19.2 12.8 0 19.2 0 32 6.4 12.8 6.4 25.6 19.2 44.8 32 6.4-6.4 19.2-6.4 25.6-12.8 0-19.2 6.4-38.4 12.8-51.2C396.8-44.799999999999955 422.4-64 448-64l128 0c25.6 0 51.2 19.2 57.6 44.8 6.4 19.2 6.4 32 12.8 51.2 6.4 6.4 19.2 6.4 25.6 12.8 12.8-12.8 32-19.2 44.8-32 6.4-6.4 19.2-6.4 32-6.4 12.8 0 32 6.4 38.4 19.2l89.6 89.6c19.2 19.2 19.2 51.2 6.4 70.4-6.4 12.8-19.2 25.6-32 44.8 6.4 6.4 6.4 19.2 12.8 25.6 19.2 0 38.4 6.4 51.2 6.4C940.8 268.79999999999995 960 294.4 960 320L960 448C960 473.6 940.8 499.2 915.2 505.6zM512 268.79999999999995C448 268.79999999999995 396.8 320 396.8 384 396.8 448 448 492.8 512 492.8 576 492.8 620.8 448 620.8 384 620.8 320 576 268.79999999999995 512 268.79999999999995zM512 550.4C422.4 550.4 345.6 473.6 345.6 384s76.8-166.4 166.4-166.4 166.4 76.8 166.4 166.4S601.6 550.4 512 550.4z"  horiz-adv-x="1024" />

    
    <glyph glyph-name="tuodong" unicode="&#58957;" d="M1007.2 353.952l-145.152-145.152c-6.24-6.24-16.384-6.24-22.624 0l-22.656 22.656c-6.24 6.24-6.24 16.384 0 22.624L914.752 352 544 352l0-160 0 0 0-192 0-18.752 97.952 97.952c6.24 6.24 16.384 6.24 22.624 0l22.656-22.656c6.24-6.24 6.24-16.384 0-22.624l-145.152-145.152C541.76-110.496 524.416-128 512-128s-28.736 17.504-30.048 16.8l-145.152 145.152c-6.24 6.24-6.24 16.384 0 22.624l22.656 22.656c6.24 6.24 16.384 6.24 22.624 0L480-18.752 480 0l0 128 0 64 0 160L109.248 352l97.952-97.952c6.24-6.24 6.24-16.384 0-22.624l-22.656-22.656c-6.24-6.24-16.384-6.24-22.624 0l-145.152 145.152C17.504 354.24 0 371.584 0 384s17.504 28.736 16.8 30.048l145.152 145.152c6.24 6.24 16.384 6.24 22.624 0l22.656-22.656c6.24-6.24 6.24-16.384 0-22.624L109.248 416 480 416 480 786.752l-97.952-97.952c-6.24-6.24-16.384-6.24-22.624 0l-22.656 22.656c-6.24 6.24-6.24 16.384 0 22.624l145.152 145.152C482.24 878.496 499.584 896 512 896s28.736-17.504 30.048-16.8l145.152-145.152c6.24-6.24 6.24-16.384 0-22.624l-22.656-22.656c-6.24-6.24-16.384-6.24-22.624 0L544 786.752 544 416l370.752 0-97.952 97.952c-6.24 6.24-6.24 16.384 0 22.624l22.656 22.656c6.24 6.24 16.384 6.24 22.624 0l145.152-145.152C1006.496 413.76 1024 396.416 1024 384S1006.496 355.264 1007.2 353.952z"  horiz-adv-x="1024" />

    
    <glyph glyph-name="xiangmu" unicode="&#58941;" d="M808.137329 832.954261H211.308429c-40.523333 0-73.495513-32.944534-73.495512-73.467867v-749.346858c0-40.523333 32.971155-73.495513 73.495512-73.495512h596.8289c40.523333 0 73.482202 32.972179 73.482202 73.495512V759.486394c0 40.523333-32.958869 73.467868-73.482202 73.467867z m17.443934-822.814725c0-9.631689-7.825556-17.457245-17.443934-17.457244H211.308429c-9.631689 0-17.457245 7.825556-17.457244 17.457244V759.486394c0 9.604044 7.825556 17.4296 17.457244 17.429599h596.8289c9.618379 0 17.443934-7.825556 17.443934-17.429599v-749.346858zM718.539172 629.104836H448.568256c-15.472955 0-28.018622-12.532356-28.018622-28.019646s12.545667-28.019646 28.018622-28.019645h269.970916c15.472955 0 28.018622 12.532356 28.018622 28.019645s-12.545667 28.019646-28.018622 28.019646zM718.539172 410.150031H448.568256c-15.472955 0-28.018622-12.532356-28.018622-28.018622 0-15.487289 12.545667-28.019646 28.018622-28.019646h269.970916c15.472955 0 28.018622 12.532356 28.018622 28.019646s-12.545667 28.018622-28.018622 28.018622zM718.539172 196.559361H448.568256c-15.472955 0-28.018622-12.532356-28.018622-28.019645s12.545667-28.018622 28.018622-28.018622h269.970916c15.472955 0 28.018622 12.532356 28.018622 28.018622 0 15.487289-12.545667 28.019646-28.018622 28.019645zM321.933095 601.078023m-46.177228 0a46.177228 46.177228 0 1 1 92.354457 0 46.177228 46.177228 0 1 1-92.354457 0ZM321.933095 382.118099m-46.177228 0a46.177228 46.177228 0 1 1 92.354457 0 46.177228 46.177228 0 1 1-92.354457 0ZM321.933095 168.531524m-46.177228 0a46.177228 46.177228 0 1 1 92.354457 0 46.177228 46.177228 0 1 1-92.354457 0Z"  horiz-adv-x="1024" />

    
    <glyph glyph-name="banben" unicode="&#58912;" d="M491.3 578.4H254.15c-12.6 0-22.5 9.9-22.5 22.5s9.9 22.5 22.5 22.5h237.15c12.15 0 22.5-9.9 22.5-22.5s-9.9-22.5-22.5-22.5zM782 361.5H254.15c-12.6 0-22.5 10.35-22.5 22.5s9.9 22.5 22.5 22.5H782c12.15 0 22.5-10.35 22.5-22.5 0-12.6-10.35-22.5-22.5-22.5zM782 144.60000000000002H254.15c-12.6 0-22.5 10.35-22.5 22.5 0 12.6 9.9 22.5 22.5 22.5H782c12.15 0 22.5-10.35 22.5-22.5s-10.35-22.5-22.5-22.5zM891.8 596.85L632.15 834H183.95c-26.55 0-48.15-20.25-48.15-45v-810c0-24.75 21.6-45 48.15-45h659.7c26.55 0 48.15 20.25 48.15 45V596.85z m-265.05 181.35L827 595.05h-197.1c-1.35 0-2.7 0.45-3.15 0.9V778.2z m220.05-798.3c-0.45-0.45-1.35-0.9-3.15-0.9H183.95c-1.35 0-2.7 0.45-3.15 0.9V788.1c0.45 0.45 1.35 0.9 3.15 0.9h397.8v-193.95c0-24.75 21.6-45 48.15-45h216.9v-570.15z"  horiz-adv-x="1024" />

    
    <glyph glyph-name="tuichu" unicode="&#58904;" d="M511.79957685-65.37692315000004c-56.00769258 0-110.35384628 10.93846114-161.51538427 32.60769258a412.61538427 412.61538427 0 0 0-131.9538463 88.89230742 414.06923057 414.06923057 0 0 0 52.20000001 630.48461573 32.53846114 32.53846114 0 0 0 37.8-52.61538516 354.80769258 354.80769258 0 0 1-106.61538515-122.19230742A344.35384629 344.35384629 0 0 1 161.69957685 349.52307685000005c0-93.46153887 36.41538428-181.38461573 102.53076944-247.5a347.81538427 347.81538427 0 0 1 247.56923056-102.6c93.46153887 0 181.45384628 36.41538428 247.63846202 102.6a347.53846114 347.53846114 0 0 1 102.53076855 247.5 344.07692315 344.07692315 0 0 1-40.01538427 162.27692315 354.46153886 354.46153886 0 0 1-106.61538428 122.05384628 32.4 32.4 0 0 0 37.8 52.68461485 414 414 0 0 0 52.2-630.55384541 414 414 0 0 0-293.53846202-121.43076944z m9.76153888 450.20769258a32.4 32.4 0 0 0-32.46923145 32.4V801.46153886a32.53846114 32.53846114 0 0 0 65.00769257 1e-8v-384.23076944c0-18-14.53846113-32.4-32.53846112-32.4z"  horiz-adv-x="1024" />

    
    <glyph glyph-name="magnifier" unicode="&#59037;" d="M766.18666667 718.18666667C603.73333333 880.64 340.37333333 880.64 177.81333333 718.18666667s-162.45333333-425.81333333 0-588.26666667C333.97333333-26.24000000000001 583.25333333-32.32000000000005 746.66666667 111.67999999999995l183.57333333-183.57333333 37.76 37.76-183.57333333 183.36c144 163.41333333 137.92 412.8-18.24 568.96z m41.92-430.72c-18.24-44.90666667-45.01333333-85.33333333-79.68-119.89333334-34.66666667-34.66666667-74.98666667-61.44-119.89333334-79.68-43.41333333-17.6-89.38666667-26.56-136.53333333-26.56s-93.01333333 8.96-136.53333333 26.56c-44.90666667 18.24-85.33333333 45.01333333-119.89333334 79.68s-61.44 74.98666667-79.68 119.89333334c-17.6 43.41333333-26.56 89.38666667-26.56 136.53333333s8.96 93.01333333 26.56 136.53333333c18.24 44.90666667 45.01333333 85.33333333 79.68 119.89333334s74.98666667 61.44 119.89333334 79.68c43.41333333 17.6 89.38666667 26.56 136.53333333 26.56s93.01333333-8.96 136.53333333-26.56c44.90666667-18.24 85.33333333-45.01333333 119.89333334-79.68 34.66666667-34.66666667 61.44-74.98666667 79.68-119.89333334 17.6-43.41333333 26.56-89.38666667 26.56-136.53333333s-8.96-93.12-26.56-136.53333333z"  horiz-adv-x="1024" />

    
    <glyph glyph-name="reduce" unicode="&#59107;" d="M766.18666667 718.18666667C603.73333333 880.64 340.37333333 880.64 177.81333333 718.18666667s-162.45333333-425.81333333 0-588.26666667C333.97333333-26.24000000000001 583.25333333-32.32000000000005 746.66666667 111.67999999999995l183.57333333-183.57333333 37.76 37.76-183.57333333 183.36c144 163.41333333 137.92 412.8-18.24 568.96z m41.92-430.72c-18.24-44.90666667-45.01333333-85.33333333-79.68-119.89333334-34.66666667-34.66666667-74.98666667-61.44-119.89333334-79.68-43.41333333-17.6-89.38666667-26.56-136.53333333-26.56s-93.01333333 8.96-136.53333333 26.56c-44.90666667 18.24-85.33333333 45.01333333-119.89333334 79.68s-61.44 74.98666667-79.68 119.89333334c-17.6 43.41333333-26.56 89.38666667-26.56 136.53333333s8.96 93.01333333 26.56 136.53333333c18.24 44.90666667 45.01333333 85.33333333 79.68 119.89333334s74.98666667 61.44 119.89333334 79.68c43.41333333 17.6 89.38666667 26.56 136.53333333 26.56s93.01333333-8.96 136.53333333-26.56c44.90666667-18.24 85.33333333-45.01333333 119.89333334-79.68 34.66666667-34.66666667 61.44-74.98666667 79.68-119.89333334 17.6-43.41333333 26.56-89.38666667 26.56-136.53333333s-8.96-93.12-26.56-136.53333333zM681.6 394.66666667H254.93333333v53.33333333h426.66666667v-53.33333333z"  horiz-adv-x="1024" />

    
    <glyph glyph-name="enlarge" unicode="&#59108;" d="M766.18666667 718.18666667C603.73333333 880.64 340.37333333 880.64 177.81333333 718.18666667s-162.45333333-425.81333333 0-588.26666667C333.97333333-26.24000000000001 583.25333333-32.32000000000005 746.66666667 111.67999999999995l183.57333333-183.57333333 37.76 37.76-183.57333333 183.36c144 163.41333333 137.92 412.8-18.24 568.96z m41.92-430.72c-18.24-44.90666667-45.01333333-85.33333333-79.68-119.89333334-34.66666667-34.66666667-74.98666667-61.44-119.89333334-79.68-43.41333333-17.6-89.38666667-26.56-136.53333333-26.56s-93.01333333 8.96-136.53333333 26.56c-44.90666667 18.24-85.33333333 45.01333333-119.89333334 79.68s-61.44 74.98666667-79.68 119.89333334c-17.6 43.41333333-26.56 89.38666667-26.56 136.53333333s8.96 93.01333333 26.56 136.53333333c18.24 44.90666667 45.01333333 85.33333333 79.68 119.89333334s74.98666667 61.44 119.89333334 79.68c43.41333333 17.6 89.38666667 26.56 136.53333333 26.56s93.01333333-8.96 136.53333333-26.56c44.90666667-18.24 85.33333333-45.01333333 119.89333334-79.68 34.66666667-34.66666667 61.44-74.98666667 79.68-119.89333334 17.6-43.41333333 26.56-89.38666667 26.56-136.53333333s-8.96-93.12-26.56-136.53333333zM681.6 394.66666667H494.93333333v-186.66666667h-53.33333333V394.66666667H254.93333333v53.33333333h186.66666667V634.66666667h53.33333333v-186.66666667h186.66666667v-53.33333333z"  horiz-adv-x="1024" />

    
    <glyph glyph-name="edit" unicode="&#58892;" d="M570.5 310.5l-3-6.75 1.5-7.5L602 169.5l7.5-31.5 26.25 18.75L744.5 234l5.25 3.75 2.25 6 206.25 522 8.25 21-21 8.25-131.25 51.75-20.25 7.5-8.25-19.5-215.25-524.25z m228.75 495l131.25-51.75-12.75 28.5-206.25-522 7.5 9.75-108.75-77.25 33.75-12.75-31.5 126.75-0.75-14.25 215.25 525-27.75-12zM849.5 581.25l-100.5 37.5c-6.75 2.25-9.75 9.75-7.5 16.5l7.5 19.5c2.25 6.75 9.75 9.75 16.5 7.5l100.5-37.5c6.75-2.25 9.75-9.75 7.5-16.5l-7.5-19.5c-2.25-6.75-9.75-9.75-16.5-7.5zM705.5 258.75l-100.5 37.5c-6.75 2.25-9.75 9.75-7.5 16.5l7.5 19.5c2.25 6.75 9.75 9.75 16.5 7.5l100.5-37.5c6.75-2.25 9.75-9.75 7.5-16.5l-7.5-19.5c-2.25-6.75-9.75-9.75-16.5-7.5zM876.5 654l-100.5 37.5c-6.75 2.25-9.75 9.75-7.5 16.5l7.5 19.5c2.25 6.75 9.75 9.75 16.5 7.5l100.5-37.5c6.75-2.25 9.75-9.75 7.5-16.5l-7.5-19.5c-2.25-6.75-9.75-10.5-16.5-7.5zM904.25-41.25H107c-29.25 0-52.5 23.25-52.5 52.5V591.75c0 29.25 23.25 52.5 52.5 52.5h540c12.75 0 22.5-9.75 22.5-22.5s-9.75-22.5-22.5-22.5H107c-3.75 0-7.5-3.75-7.5-7.5v-580.5c0-3.75 3.75-7.5 7.5-7.5h797.25c3.75 0 7.5 3.75 7.5 7.5V564c0 12.75 9.75 22.5 22.5 22.5s22.5-9.75 22.5-22.5v-552.75c0-29.25-23.25-52.5-52.5-52.5zM375.5 404.25H221c-12.75 0-24 10.5-24 24 0 12.75 10.5 24 24 24h155.25c12.75 0 24-10.5 24-24-0.75-13.5-11.25-24-24.75-24zM416 316.5h-195c-12.75 0-24 10.5-24 24 0 12.75 10.5 24 24 24h195c12.75 0 24-10.5 24-24-0.75-13.5-11.25-24-24-24zM446 229.5h-225c-12.75 0-24 10.5-24 24 0 12.75 10.5 24 24 24h225c12.75 0 24-10.5 24-24-0.75-13.5-11.25-24-24-24z"  horiz-adv-x="1024" />

    
    <glyph glyph-name="shijianzhou" unicode="&#59002;" d="M299.2896 326.53653333V455.53493333c36.00213333 15.0016 59.99786667 48 59.99786667 86.99733334s-24.00426667 72.00426667-59.99786667 84.00213333V782.53226667c0 17.9968-11.99786667 30.0032-30.0032 30.0032s-30.0032-11.99786667-30.0032-30.0032v-155.99786667c-36.00213333-11.99786667-59.99786667-44.99626667-59.99786667-84.00213333s24.00426667-72.00426667 59.99786667-84.00213334v-128.9984c-36.00213333-11.99786667-59.99786667-44.99626667-59.99786667-84.00213333s24.00426667-72.00426667 59.99786667-84.00213333v-159.0016c0-17.9968 11.99786667-30.0032 30.0032-30.0032s30.0032 11.99786667 30.0032 30.0032V158.53226667c36.00213333 11.99786667 59.99786667 44.99626667 59.99786667 84.00213333s-23.99573333 71.99573333-59.99786667 84.00213333z m-30.0032 245.99893334c17.9968 0 30.0032-11.99786667 30.0032-30.0032s-11.99786667-30.0032-30.0032-30.0032-30.0032 11.99786667-30.0032 30.0032 12.0064 30.0032 30.0032 30.0032z m0-360.00426667c-17.9968 0-30.0032 11.99786667-30.0032 30.0032s11.99786667 30.0032 30.0032 30.0032 30.0032-11.99786667 30.0032-30.0032-11.99786667-30.0032-30.0032-30.0032zM777.46346667 203.99786667H488.1664c-18.08213333 0-36.16426667-11.99786667-36.16426667-30.0032s14.464-30.0032 36.16426667-30.0032H777.472c18.08213333 0 36.16426667 11.99786667 36.16426667 30.0032s-14.464 30.0032-36.1728 30.0032zM849.80906667 624h-361.64266667c-18.08213333 0-36.16426667-11.99786667-36.16426667-30.0032s14.464-30.0032 36.16426667-30.0032h361.64266667c18.0736 0 36.15573333 11.99786667 36.15573333 30.0032s-14.464 30.0032-36.15573333 30.0032zM777.46346667 443.99786667c18.08213333 0 36.16426667 11.99786667 36.16426666 30.0032s-14.45546667 30.0032-36.16426666 30.0032H488.1664c-18.08213333 0-36.16426667-11.99786667-36.16426667-30.0032s14.464-30.0032 36.16426667-30.0032h289.29706667zM849.80906667 324.00213333h-361.64266667c-18.08213333 0-36.16426667-11.99786667-36.16426667-30.0032s14.464-30.0032 36.16426667-30.0032h361.64266667c18.0736 0 36.15573333 11.99786667 36.15573333 30.0032s-14.464 30.0032-36.15573333 30.0032z"  horiz-adv-x="1024" />

    
    <glyph glyph-name="tongbu" unicode="&#58894;" d="M222.59095947 598.69018711c66.3241456 87.42006651 171.12899708 144 289.40904053 144 158.36824688 0 292.76295469-101.35170878 342.75413408-242.61300967h84.8202873C886.70562295 686.70562295 715.49724394 823.56119092 511.9801543 823.56119092 365.63836836 823.56119092 236.2844542 752.59316396 155.33406846 643.50165381L67.19955928 702.24476279V419.22602021l242.61300967 121.31642725-87.22160947 58.14773965z m491.57662589-381.63175313l87.22160946-58.16758535c-66.3241456-87.42006651-171.12899708-144-289.38919482-143.99999999-158.38809258 0-292.74310898 101.35170878-342.75413408 242.61301054H84.38588721c52.86879844-186.6284455 224.05733174-323.48401348 427.59426709-323.48401348 146.34178594 0 275.6957001 70.96802607 356.62624013 180.05953711l88.15435489-58.74310898V338.35501640999996l-242.59316397-121.29658243z m-80.87100294 283.03858917H390.70341758a40.42557862 40.42557862 0 1 1 0-80.87100294h242.61301054a40.46527002 40.46527002 0 0 1-0.0198457 80.87100294z m0-161.74200674H390.70341758a40.42557862 40.42557862 0 1 1 0-80.87100294h242.61301054a40.42557862 40.42557862 0 1 1-0.0198457 80.87100294z"  horiz-adv-x="1024" />

    
    <glyph glyph-name="kejian" unicode="&#59017;" d="M56.888889 384c113.777778 227.555556 267.377778 341.333333 455.111111 341.333333s341.333333-113.777778 455.111111-341.333333c-113.777778-227.555556-261.688889-341.333333-455.111111-341.333333s-341.333333 113.777778-455.111111 341.333333z m455.111111-284.444444c159.288889 0 290.133333 91.022222 392.533333 284.444444-102.4 193.422222-233.244444 284.444444-392.533333 284.444444S221.866667 577.422222 119.466667 384c102.4-193.422222 233.244444-284.444444 392.533333-284.444444zM512 156.444444c-125.155556 0-227.555556 102.4-227.555556 227.555556s102.4 227.555556 227.555556 227.555556 227.555556-102.4 227.555556-227.555556-102.4-227.555556-227.555556-227.555556z m0 56.888889c96.711111 0 170.666667 73.955556 170.666667 170.666667s-73.955556 170.666667-170.666667 170.666667-170.666667-73.955556-170.666667-170.666667 73.955556-170.666667 170.666667-170.666667z"  horiz-adv-x="1024" />

    
    <glyph glyph-name="bukejian" unicode="&#59039;" d="M56.888889 384c113.777778 227.555556 267.377778 341.333333 455.111111 341.333333s341.333333-113.777778 455.111111-341.333333c-113.777778-227.555556-261.688889-341.333333-455.111111-341.333333s-341.333333 113.777778-455.111111 341.333333z m455.111111-284.444444c159.288889 0 290.133333 91.022222 392.533333 284.444444-102.4 193.422222-233.244444 284.444444-392.533333 284.444444S221.866667 577.422222 119.466667 384c102.4-193.422222 233.244444-284.444444 392.533333-284.444444zM512 156.444444c-125.155556 0-227.555556 102.4-227.555556 227.555556s102.4 227.555556 227.555556 227.555556 227.555556-102.4 227.555556-227.555556-102.4-227.555556-227.555556-227.555556z m0 56.888889c96.711111 0 170.666667 73.955556 170.666667 170.666667s-73.955556 170.666667-170.666667 170.666667-170.666667-73.955556-170.666667-170.666667 73.955556-170.666667 170.666667-170.666667zM853.902222 1.820444L129.877333 725.902222l40.220445 40.220445L894.122667 42.097778z"  horiz-adv-x="1024" />

    
    <glyph glyph-name="guanxitu" unicode="&#59142;" d="M824.888889 213.333333c-28.444444 0-56.888889-11.377778-79.644445-22.755555l-45.511111 45.511111c22.755556 34.133333 39.822222 73.955556 39.822223 119.466667 0 62.577778-28.444444 119.466667-73.955556 153.6l22.755556 45.511111h22.755555C790.755556 554.666667 853.333333 617.244444 853.333333 696.888889S790.755556 839.111111 711.111111 839.111111 568.888889 776.533333 568.888889 696.888889c0-51.2 28.444444-91.022222 62.577778-119.466667l-17.066667-39.822222c-22.755556 11.377778-45.511111 17.066667-73.955556 17.066667C432.355556 554.666667 341.333333 463.644444 341.333333 355.555556c0-28.444444 5.688889-51.2 17.066667-73.955556l-39.822222-17.066667c-28.444444 34.133333-68.266667 62.577778-119.466667 62.577778C119.466667 327.111111 56.888889 264.533333 56.888889 184.888889S119.466667 42.666667 199.111111 42.666667 341.333333 105.244444 341.333333 184.888889v22.755555l45.511111 22.755556c34.133333-45.511111 91.022222-73.955556 153.6-73.955556 45.511111 0 85.333333 17.066667 119.466667 39.822223l45.511111-45.511111c-11.377778-22.755556-22.755556-51.2-22.755555-79.644445 0-79.644444 62.577778-142.222222 142.222222-142.222222s142.222222 62.577778 142.222222 142.222222-62.577778 142.222222-142.222222 142.222222z m-113.777778 568.888889c45.511111 0 85.333333-39.822222 85.333333-85.333333S756.622222 611.555556 711.111111 611.555556 625.777778 651.377778 625.777778 696.888889 665.6 782.222222 711.111111 782.222222z m-512-682.666666c-45.511111 0-85.333333 39.822222-85.333333 85.333333S153.6 270.222222 199.111111 270.222222s85.333333-39.822222 85.333333-85.333333S244.622222 99.555556 199.111111 99.555556zM398.222222 355.555556C398.222222 435.2 460.8 497.777778 540.444444 497.777778S682.666667 435.2 682.666667 355.555556 620.088889 213.333333 540.444444 213.333333 398.222222 275.911111 398.222222 355.555556z m426.666667-369.777778c-45.511111 0-85.333333 39.822222-85.333333 85.333333s39.822222 85.333333 85.333333 85.333333 85.333333-39.822222 85.333333-85.333333-39.822222-85.333333-85.333333-85.333333z"  horiz-adv-x="1024" />

    
    <glyph glyph-name="shuju" unicode="&#58882;" d="M245.33375 735.99979167h106.6659375v-53.3334375H245.33375z m0-319.9996875h106.6659375V362.66666667000004H245.33375z m0-319.9996875h106.6659375v-53.334375H245.33375zM831.9996875 789.33322917v-160.0003125H192.0003125V789.33322917h639.999375M885.3340625 842.66666667H138.6659375v-266.66625h746.66625V842.66666667z m-53.334375-373.333125V309.33229167H192.0003125V469.33354167h639.999375m53.334375 53.3334375H138.6659375v-266.6671875h746.66625V522.66697917z m-53.334375-373.3340625v-159.999375H192.0003125V149.33291667000003h639.999375m53.334375 53.334375H138.6659375v-266.6671875h746.66625V202.66635416999998z"  horiz-adv-x="1024" />

    
    <glyph glyph-name="xinjian" unicode="&#58881;" d="M676.978 839.111h-512V-71.11000000000001h284.444v56.889H221.867V782.222H563.2v-227.555h227.556V327.11h56.888V668.444L676.978 839.111z m-56.89-227.555V782.222h34.134L790.756 645.69v-34.133H620.089zM676.978 327.111h-56.89v-170.667H449.423v-56.888H620.09v-170.667h56.889V99.55600000000004h170.666v56.888H676.978z"  horiz-adv-x="1024" />

    
    <glyph glyph-name="wushuju" unicode="&#58919;" d="M909.016 75.172H841a30 30 0 0 0 0 60h38.016a20 20 0 0 1 20 20V750.815a20 20 0 0 1-20 20H352a20 20 0 0 1-20-20v-28h370.016a50 50 0 0 0 50-50v-223.36a29.989 29.989 0 1 0-59.507-5.283h-0.493V642.815a20 20 0 0 1-20 20H145a20 20 0 0 1-20-20v-625.643a20 20 0 0 1 20-20h337a30 30 0 0 0 0-60H115a50 50 0 0 0-50 50V672.815a50 50 0 0 0 50 50h157v58a50 50 0 0 0 50 50h587.016a50 50 0 0 0 50-50v-655.643a50 50 0 0 0-50-50z m-663.037 484H572.74a29.979 29.979 0 1 0 0-59.957H245.979a29.979 29.979 0 1 0 0 59.957z m0-290.043h74.912a29.979 29.979 0 0 0 29.979-29.978 29.979 29.979 0 0 0-29.979-29.979h-74.912A29.979 29.979 0 0 0 216 239.151a29.979 29.979 0 0 0 29.979 29.978zM216 384.193a29.979 29.979 0 0 0 29.979 29.979h140.935a29.979 29.979 0 0 0 29.979-29.979v-0.042a29.979 29.979 0 0 0-29.979-29.979H245.979A29.979 29.979 0 0 0 216 384.151v0.042z m163-177.521c0 107.419 87.081 194.5 194.5 194.5S768 314.091 768 206.672a193.618 193.618 0 0 0-37.9-115.356l84.115-84.115a30 30 0 1 0-42.425-42.429l-84.3 84.3a193.6 193.6 0 0 0-113.99-36.9c-107.419 0-194.5 87.081-194.5 194.5z m194.5-134.5a134.5 134.5 0 1 1-134.5 134.5 134.5 134.5 0 0 1 134.5-134.5z"  horiz-adv-x="1024" />

    
    <glyph glyph-name="baocun" unicode="&#58934;" d="M174.5 777.75a56.25 56.25 0 0 1-56.25-56.25v-675a56.25 56.25 0 0 1 56.25-56.25h675a56.25 56.25 0 0 1 56.25 56.25V721.5a56.25 56.25 0 0 1-56.25 56.25H174.5z m0 56.25h675a112.5 112.5 0 0 0 112.5-112.5v-675a112.5 112.5 0 0 0-112.5-112.5H174.5a112.5 112.5 0 0 0-112.5 112.5V721.5a112.5 112.5 0 0 0 112.5 112.5zM258.875 777.75v-168.75a56.25 56.25 0 0 1 56.25-56.25h393.75a56.25 56.25 0 0 1 56.25 56.25V777.75h-506.25z m-56.25 56.25h618.75v-225a112.5 112.5 0 0 0-112.5-112.5h-393.75a112.5 112.5 0 0 0-112.5 112.5V834zM652.625 693.375a28.125 28.125 0 1 0 56.25 0v-56.25a28.125 28.125 0 1 0-56.25 0v56.25z"  horiz-adv-x="1024" />

    
    <glyph glyph-name="lingcunwei" unicode="&#58944;" d="M174.5 777.75a56.25 56.25 0 0 1-56.25-56.25v-562.5a56.25 56.25 0 0 1 56.25-56.25h562.5a56.25 56.25 0 0 1 56.25 56.25V721.5a56.25 56.25 0 0 1-56.25 56.25H174.5z m0 56.25h562.5a112.5 112.5 0 0 0 112.5-112.5v-562.5a112.5 112.5 0 0 0-112.5-112.5H174.5a112.5 112.5 0 0 0-112.5 112.5V721.5a112.5 112.5 0 0 0 112.5 112.5zM287 777.75v-112.5a56.25 56.25 0 0 1 56.25-56.25h225a56.25 56.25 0 0 1 56.25 56.25V777.75H287zM230.75 834h450v-168.75a112.5 112.5 0 0 0-112.5-112.5H343.25a112.5 112.5 0 0 0-112.5 112.5V834zM512 721.5a28.125 28.125 0 0 0 56.25 0v-56.25a28.125 28.125 0 0 0-56.25 0V721.5zM174.5 64.04999999999995h56.25v-42.525c0-13.725 22.5-31.275 56.25-31.275h562.5c33.75 0 56.25 17.55 56.25 31.275V633.975C905.75 647.7 883.25 665.25 849.5 665.25h-54.3375V721.5H849.5c62.15625 0 112.5-39.15 112.5-87.525v-612.45c0-48.375-50.34375-87.525-112.5-87.525H287c-62.15625 0-112.5 39.15-112.5 87.525v42.525z m0 0h56.25v-42.525c0-13.725 22.5-31.275 56.25-31.275h562.5c33.75 0 56.25 17.55 56.25 31.275V633.975C905.75 647.7 883.25 665.25 849.5 665.25h-54.3375V721.5H849.5c62.15625 0 112.5-39.15 112.5-87.525v-612.45c0-48.375-50.34375-87.525-112.5-87.525H287c-62.15625 0-112.5 39.15-112.5 87.525v42.525z"  horiz-adv-x="1024" />

    
    <glyph glyph-name="huanyuan" unicode="&#58880;" d="M959.720175 896H294.216115a63.960025 63.960025 0 0 1-63.960025-63.960025v-127.92005H64.279825a63.960025 63.960025 0 0 1-63.960025-63.960025v-703.560275a63.960025 63.960025 0 0 1 63.960025-63.960025h703.560275a63.960025 63.960025 0 0 1 63.960025 63.960025v166.935665h127.92005a63.960025 63.960025 0 0 1 63.960025 63.960025V832.039975a63.960025 63.960025 0 0 1-63.960025 63.960025z m-191.880075-728.504685V-63.400375000000054H64.279825V640.1599h703.560275z m189.321674 0H831.800125V640.1599a63.960025 63.960025 0 0 1-63.960025 63.960025H294.216115V832.039975H959.720175z"  horiz-adv-x="1024" />

    
    <glyph glyph-name="daochutupian" unicode="&#58951;" d="M465.9453125 380.74804687000005c0 29.1796875-23.64257813 52.82226563-52.82226563 52.82226563s-52.91015625-23.64257813-52.91015625-52.82226563 23.64257813-52.82226563 52.91015625-52.82226562c29.09179688-0.08789063 52.82226563 23.5546875 52.82226563 52.82226563zM576.3359375 151.88085937000005c13.79882813 86.30859375 83.3203125 153.89648438 170.5078125 164.79492188l-8.7890625 28.56445313-44.6484375-14.85351563-38.75976563 72.94921875L529.578125 222.80859375l-66.97265625 43.2421875-105.02929688-114.16992188h218.75976563zM290.25195312 105.38671875V484.1953125c0 6.76757813 5.44921875 12.21679688 12.21679688 12.21679688h533.58398438c6.76757813 0 12.21679688-5.44921875 12.21679687-12.21679688v-181.40625c20.65429688-8.70117188 39.46289063-20.7421875 55.8984375-35.5078125V524.71289063c0 15.29296875-12.39257813 27.59765625-27.59765625 27.59765624h-117.7734375l-69.69726562 181.23046876c-5.44921875 14.23828125-21.4453125 21.35742188-35.68359375 15.90820312L79.75390625 528.93164063C65.515625 523.39453125 58.39648437 507.3984375 63.84570312 493.16015625l170.50781251-443.40820313v-0.26367187h352.61718749c-6.76757813 17.578125-11.07421875 36.29882813-12.56835937 55.8984375H290.25195312z m352.17773438 580.078125c1.84570313 0.26367188 4.83398438 0.17578125 6.41601563-3.33984375l49.92187499-129.7265625H296.31640625L642.4296875 685.46484375zM234.35351562 205.49414062000005L130.46679687 475.49414063c-2.37304688 6.24023438 0.703125 13.359375 7.03125001 15.73242187l96.85546875 37.265625v-322.99804688zM960.68164063 130.875L827.52734375 237.66210937000005c-2.02148438 1.49414063-4.83398438 0.08789063-4.83398438-2.46093749v-66.00585938H650.8671875c-4.65820313 0-8.52539063-3.77929688-8.52539063-8.4375v-66.53320312c0-4.65820313 3.77929688-8.52539063 8.52539063-8.52539063h171.82617188v-66.00585937c0-2.4609375 2.90039063-3.95507813 4.83398437-2.4609375l133.15429688 106.78710937c2.28515625 1.7578125 2.28515625 5.18554688-1e-8 6.85546875z"  horiz-adv-x="1024" />

    
    <glyph glyph-name="shouqi" unicode="&#58891;" d="M960.00000031 643.99999969h-460.00000031c-16.00000031 0-31.99999969 19.99999969-31.99999969 40.00000031 0 24 12 40.00000031 31.99999969 40.00000031h460.00000031c16.00000031 0 31.99999969-16.00000031 31.99999969-40.00000031 0-19.99999969-12-40.00000031-31.99999969-40.00000031z m-444-120h435.99999938c24 0 43.99999969-19.99999969 44.00000062-39.99999938 0-24-19.99999969-40.00000031-44.00000062-40.00000031H516.00000031c-24 0-43.99999969 16.00000031-44.00000062 40.00000031s19.99999969 40.00000031 44.00000062 39.99999938z m0-279.99999938c-24 0-43.99999969 19.99999969-44.00000062 39.99999938 0 24 19.99999969 40.00000031 44.00000062 40.00000031h435.99999938c24 0 43.99999969-16.00000031 44.00000062-40.00000031s-19.99999969-40.00000031-44.00000062-39.99999938H516.00000031z m3.99999938-120h424.00000031c28.00000031 0 48-16.00000031 48-40.00000031s-19.99999969-40.00000031-48-40.00000031h-424.00000031c-28.00000031 0-48 16.00000031-48 40.00000031s19.99999969 40.00000031 48 40.00000031z m-180-24c-16.00000031-16.00000031-43.99999969-16.00000031-60 0l-235.99999969 255.99999938c-16.00000031 16.00000031-16.00000031 48 0 64.00000031l235.99999969 256.00000031c16.00000031 16.00000031 43.99999969 16.00000031 60 0s16.00000031-48 0-64.00000031l-207.99999938-223.99999969 207.99999938-224.00000062c16.00000031-19.99999969 16.00000031-48 0-63.99999938z"  horiz-adv-x="1028" />

    
    <glyph glyph-name="dakai" unicode="&#60383;" d="M275.84 736H124.192l1.824-580.096a32 32 0 0 0-64 0L60.16 736a64 64 0 0 0 64 64h177.92l97.28-96h498.272a32 32 0 1 0 0-64H373.152l-97.28 96zM127.52 160.384a32 32 0 0 0-63.04 10.944l54.624 314.144C127.904 536.064 174.784 576 225.76 576h668.864c55.36 0 93.92-46.72 84.384-101.472l-72.32-416C897.824 7.936 850.976-32 800-32H160a32 32 0 0 0 0 64h640c19.712 0 40.096 17.376 43.616 37.472l72.32 416c2.784 15.904-5.984 26.528-21.312 26.528H225.76c-19.68 0-40.096-17.376-43.584-37.472l-54.656-314.144z"  horiz-adv-x="1024" />

    
    <glyph glyph-name="zuixiaohua" unicode="&#58908;" d="M928.2 348h-832c-17.7 0-32 14.3-32 32s14.3 32 32 32h832c17.7 0 32-14.3 32-32s-14.3-32-32-32z"  horiz-adv-x="1024" />

    
    <glyph glyph-name="guanbi" unicode="&#58883;" d="M892.97464889 57.430471109999985L568.89116445 381.51395555l324.08348444 324.22115556c15.60348445 15.60348445 15.60348445 41.0112 0 56.61468444s-41.0112 15.60348445-56.61468444 0L512.27648 438.26631111l-324.22115555 324.08348444c-15.60348445 15.60348445-41.0112 15.60348445-56.61468445 0s-15.60348445-41.0112 0-56.61468444l324.22115555-324.22115556-324.22115555-324.08348444c-15.60348445-15.60348445-15.60348445-41.0112 0-56.61468444s41.0112-15.60348445 56.61468445 0l324.22115555 324.22115555 324.22115555-324.22115555c15.60348445-15.60348445 41.0112-15.60348445 56.61468445 0 15.46581333 15.60348445 15.46581333 41.0112-0.13880889 56.61468444z"  horiz-adv-x="1024" />

    
    <glyph glyph-name="biaoge" unicode="&#59394;" d="M57.6 763.52v-785.92h908.8V763.52z m844.16-64v-203.52H121.6V699.52zM397.44 268.79999999999995V432h220.16V268.79999999999995z m220.8-64v-163.2H397.44V204.79999999999995zM121.6 432h211.2V268.79999999999995H121.6z m560 0h220.8V268.79999999999995h-220.8zM121.6 204.79999999999995h211.2v-163.2H121.6z m560-163.2V204.79999999999995h220.8v-163.2z"  horiz-adv-x="1024" />

    
    <glyph glyph-name="duibi" unicode="&#59406;" d="M948.90666667 451.72053333l-240.29866667 139.81013334a36.40888889 36.40888889 0 0 1-18.20444445 5.09724444 37.13706667 37.13706667 0 0 1-18.20444444-5.09724444l-61.16693333-34.95253334v68.44871112a36.40888889 36.40888889 0 0 1-18.20444445 31.31164444l-240.29866666 139.81013333a35.68071111 35.68071111 0 0 1-18.20444445 5.09724445 36.40888889 36.40888889 0 0 1-18.20444444-5.09724445L75.09333333 657.06666667a36.40888889 36.40888889 0 0 1-18.20444444-31.31164445V347.59111111000004a36.40888889 36.40888889 0 0 1 18.20444444-31.31164444l240.29866667-139.81013334a36.40888889 36.40888889 0 0 1 18.20444445-5.09724444 37.13706667 37.13706667 0 0 1 18.20444444 5.09724444l24.75804444 13.83537778V274.77333333l-42.96248888-24.75804444-204.61795556 118.69297778V602.4533333300001l205.34613333 120.14933334L538.94257778 602.4533333300001V367.98008889000005l-52.4288-30.58346667v62.62328889l16.01991111 9.46631111V493.22666667l-72.81777778-40.77795556a36.40888889 36.40888889 0 0 1-18.20444444-31.31164444V142.97315555a36.40888889 36.40888889 0 0 1 18.20444444-31.31164444l241.02684444-139.81013333a36.40888889 36.40888889 0 0 1 36.4088889 0l241.75502222 138.35377777a36.40888889 36.40888889 0 0 1 18.20444444 31.31164445V420.40888889a36.40888889 36.40888889 0 0 1-18.20444444 31.31164444z m-55.34151112-291.27111111l-204.61795555-117.9648L485.05742222 165.54666667000004V253.65617778l107.04213333 61.89511111a36.40888889 36.40888889 0 0 1 18.20444445 31.31164444V472.10951111l79.37137778 45.8752 204.61795555-118.69297778z"  horiz-adv-x="1024" />

    
    <glyph glyph-name="zuidahua" unicode="&#58893;" d="M915.995-64.21900000000005H110.228c-24.262 0-44 19.738-44 44V785.772c0 24.262 19.738 44 44 44h805.768c24.262 0 44-19.738 44-44v-805.991c-0.001-24.261-19.739-44-44.001-44z m-785.767 64h765.768V765.7719999999999H130.228v-765.991zM124.462 767.312h803.533v-64H124.462z"  horiz-adv-x="1024" />

    
    <glyph glyph-name="shujuleixing" unicode="&#58884;" d="M352.63571416 261.53571416a64.28571416 64.28571416 0 1 0 64.28571417 1.60714336L415.57142832 157.00714247999997a32.14285752 32.14285752 0 0 0-32.14285664-31.69285664H126.28571416V62.571428319999995a64.28571416 64.28571416 0 0 1 64.28571416-64.28571416h418.88571416V356.93571416a64.28571416 64.28571416 0 1 0 64.28571504 1.15714336V-1.7142858400000023H833.42857168a64.28571416 64.28571416 0 0 1 64.28571416 64.28571416V575.12142832H439.74285752a64.28571416 64.28571416 0 1 0-1.28571504 64.28571416H897.71428584V705.42857168a64.28571416 64.28571416 0 0 1-64.28571416 64.28571416H190.57142832a64.28571416 64.28571416 0 0 1-64.28571416-64.28571417v-515.82857167h225.38571416l0.96428584 71.93571416zM190.57142832 834h642.85714336a128.57142832 128.57142832 0 0 0 128.57142832-128.57142832v-642.85714336a128.57142832 128.57142832 0 0 0-128.57142832-128.57142832H190.57142832a128.57142832 128.57142832 0 0 0-128.57142832 128.57142832V705.42857168a128.57142832 128.57142832 0 0 0 128.57142832 128.57142832z"  horiz-adv-x="1024" />

    
    <glyph glyph-name="shujujianmo" unicode="&#58945;" d="M776.446284 280.624998c-48.090232 0-80.183713-32.093481-80.183712-80.183713s32.093481-80.183713 80.183712-80.183712 80.183713 32.093481 80.183713 80.183712-32.093481 80.183713-80.183713 80.183713zM527.996751 497.08103c-23.995126 0-40.091856-15.996751-40.091857-40.091856s15.996751-40.091856 40.091857-40.091856c23.995126 0 40.091856 15.996751 40.091856 40.091856S544.093481 497.08103 527.996751 497.08103zM223.45861 280.624998c-32.093481 0-56.088607-23.995126-56.088607-48.090232 0-32.093481 23.995126-56.088607 56.088607-56.088607s48.090232 23.995126 48.090232 56.088607c0 24.095106-23.995126 48.090232-48.090232 48.090232z m552.987674-208.357677c-72.085358 0-136.17234 56.088607-136.17234 136.272319 0 15.996751 0 32.093481 7.998376 48.090232l-80.183713 120.175589c-7.998375-7.998375-23.995126-15.996751-40.091856-15.99675-23.995126 0-48.090232 7.998375-64.086983 32.093481L319.739053 272.626623c7.998375-15.996751 7.998375-23.995126 7.998375-40.091857 0-56.088607-48.090232-104.178839-104.178838-104.178838s-112.177214 48.090232-112.177214 104.178838 48.090232 104.178839 112.177214 104.178839c23.995126 0 48.090232-7.998375 64.086982-15.996751l144.170715 128.273945v7.998375c0 48.090232 40.091856 96.180463 96.180464 96.180463s96.180463-40.091856 96.180463-96.180463c0-15.996751 0-23.995126-7.998375-40.091856l80.183712-120.17559c15.996751 23.995126 48.090232 40.091856 80.183713 40.091857 72.085358 0 136.27232-56.088607 136.27232-136.27232-0.09998-72.185337-64.186962-128.273944-136.3723-128.273944zM1017.297361 576.764845c0 36.392608-7.198538 65.586678-21.495633 87.48223-0.699858 2.899411-1.799634 5.598863-3.19935 8.198335C922.116695 802.518988 949.71109 751.929264 881.824879 875.004265c-0.499898 9.59805-5.998781 14.796994-13.797197 17.596425-4.899005 2.999391-10.697827 3.999188-16.29669 2.899412-3.999188 0.299939-8.098355 0.299939-11.997563 0.299939-134.172746 0.199959-519.594457 0.199959-653.867183 0-4.699046 0-9.59805-0.09998-14.397076-0.599879-11.297705 2.499492-21.395654-2.799431-27.294455-13.497258-72.785216-131.873213-42.791308-76.984363-114.576727-209.457454a34.792933 34.792933 0 0 1-3.19935-8.298314c-13.197319-21.095715-19.795979-48.990049-19.795979-83.683002v-565.685095c0-101.279428 40.591755-142.271101 141.571243-142.471061 116.476341-0.09998 257.947604 0 374.423945 0 119.475731 0 238.851483-0.299939 358.227235 0.09998 93.580991 0.299939 136.27232 43.091247 136.27232 135.772421 0.299939 189.761455 0.299939 379.32295 0.199959 568.784466z m-148.96974 209.357474l2.799431-5.098964 0.699858-1.299736c20.795776-37.992283 26.194679-47.990252 36.892506-67.586272-9.298111 1.099777-18.596223 1.699655-27.894334 1.699655l-35.892709 0.09998V829.413525c7.598457-14.497055 15.596832-28.894131 23.395248-43.291206z m-55.888648 66.086576V714.036961c-194.56048 0.399919-402.01834 0.399919-596.978738 0V852.208895h102.179244c61.087592 0 383.222158-0.09998 494.799494 0z m-662.065518-72.585256l0.399919 0.599878 3.099371 5.798822c9.79801 18.096324 19.895959 36.092669 29.09409 54.488932v-126.574289l-43.691125-0.09998c-8.598253 0-17.096527-0.499898-25.694781-1.399716l36.792526 67.186353z m717.054349-835.730242c-114.776686-0.09998-229.553372-0.09998-344.430038 0-112.877072 0-249.449331-0.09998-362.426382 0.099979-18.996141 0-33.893115 2.399513-45.39078 7.698437l81.18351 140.671426c3.699249 6.3987 1.499695 14.497055-4.899005 18.096324l-5.198944 2.999391c-6.3987 3.699249-14.497055 1.499695-18.096324-4.899005l-76.684424-132.97299c-5.398903 11.697624-7.798416 26.994517-7.798416 46.490557v545.889116c0.09998 57.088404 20.395857 77.88418 77.084342 77.88418h22.095512v-26.894537c0-8.698233 6.998578-15.696812 15.696812-15.696812h1.199756c8.698233 0 15.696812 6.998578 15.696812 15.696812v26.894537c194.260541 0.09998 402.618218 0.09998 596.978738 0v-39.391999c0-8.698233 6.998578-15.696812 15.696812-15.696812h1.299736c8.698233 0 15.696812 6.998578 15.696811 15.696812v39.391999h22.495431c56.688485-0.09998 76.984363-20.795776 76.984363-78.08414v-545.889116c0-20.595816-2.699452-36.492587-8.798213-48.290191l-53.189196 92.081296c-3.699249 6.298721-11.797604 8.498274-18.096324 4.799025l-5.198944-2.99939c-6.3987-3.699249-8.498274-11.797604-4.899005-18.096325l56.888444-98.479996c-11.297705-4.799025-25.79476-6.898599-43.891084-6.998578zM150.673394 780.223517c-16.09673-29.693968 21.995532 40.091856 0 0z m720.453658 0.799838c-21.295674 38.79212 16.896568-31.293643 0 0zM182.866855 553.169637h32.59338v-203.658631h-32.59338V553.169637zM812.438973 540.672176H844.932373v-203.658632h-32.593379V540.672176zM345.733773 264.728227h260.047178V232.134848H345.733773v32.593379z"  horiz-adv-x="1024" />

    


  </font>
</defs>
</svg>
